<?xml version="1.0" encoding="utf-8"?><svg viewBox="0 0 100 100" xmlns="http://www.w3.org/2000/svg" xmlns:xlink="http://www.w3.org/1999/xlink" id="Ebene_1" xml:space="preserve" overflow="hidden"><style>
.MsftOfcThm_Text2_Stroke_v2 {
 stroke:#4A4A4A; 
}
</style>
<g><g><g><circle cx="50.2545" cy="67.9821" r="3" class="st0 MsftOfcThm_Text2_Stroke_v2" stroke="#4A4A4A" stroke-width="1.66667" stroke-linejoin="round" fill="none" /><path d="M58.2535 62.4987C57.4332 62.4987 56.6412 62.1559 56.0748 61.5592 54.5054 59.8981 52.441 58.9831 50.2535 58.9801 48.0679 58.9831 45.9996 59.8981 44.4361 61.5553 43.8726 62.154 43.0757 62.4987 42.2535 62.4987 41.481 62.4987 40.7466 62.2057 40.189 61.6735 38.9937 60.5436 38.938 58.6423 40.066 57.4411 42.7769 54.5651 46.3912 52.9801 50.2466 52.9801 54.1119 52.9782 57.7281 54.5632 60.439 57.4411 60.9879 58.0202 61.2779 58.7829 61.2545 59.5837 61.231 60.3864 60.8951 61.1315 60.3121 61.6803 59.7545 62.2077 59.022 62.4987 58.2535 62.4987L58.2535 62.4987Z" class="st0 MsftOfcThm_Text2_Stroke_v2" stroke="#4A4A4A" stroke-width="1.66667" stroke-linejoin="round" fill="none" /><path d="M66.2535 54.0133C65.4273 54.0133 64.6314 53.6696 64.0679 53.0671 60.3687 49.1462 55.4634 46.9831 50.2603 46.9811 45.0513 46.9831 40.1412 49.1462 36.4351 53.0719 35.8746 53.6696 35.0787 54.0133 34.2545 54.0133 33.4849 54.0133 32.7535 53.7233 32.1939 53.1921 31.6158 52.652 31.2779 51.9059 31.2545 51.1042 31.231 50.2995 31.5211 49.5358 32.0738 48.9528 36.9175 43.8132 43.3736 40.9801 50.2515 40.9801 57.1324 40.9782 63.5884 43.8102 68.4361 48.9577 68.9849 49.5426 69.275 50.3014 69.2515 51.1012 69.23 51.902 68.8941 52.6462 68.3091 53.196 67.7525 53.7233 67.0211 54.0133 66.2535 54.0133L66.2535 54.0133Z" class="st0 MsftOfcThm_Text2_Stroke_v2" stroke="#4A4A4A" stroke-width="1.66667" stroke-linejoin="round" fill="none" /><path d="M74.2574 45.53C73.4341 45.53 72.6373 45.1862 72.0718 44.5895 66.232 38.3942 58.4927 34.9831 50.2769 34.9801 42.0328 34.9831 34.2759 38.3942 28.4361 44.5866 27.8775 45.1842 27.0806 45.53 26.2535 45.53 25.4839 45.53 24.7535 45.238 24.1949 44.7116 23.6129 44.1637 23.2769 43.4176 23.2535 42.6149 23.232 41.8132 23.522 41.0505 24.0728 40.4684 31.0533 33.0622 40.3541 28.9821 50.2613 28.9821 60.1597 28.9772 69.4507 33.0573 76.438 40.4743 77.5718 41.6803 77.5142 43.5788 76.3111 44.7135 75.7564 45.238 75.0259 45.53 74.2574 45.53L74.2574 45.53Z" class="st0 MsftOfcThm_Text2_Stroke_v2" stroke="#4A4A4A" stroke-width="1.66667" stroke-linejoin="round" fill="none" /></g><g></g><g></g><g></g><g></g><g></g><g></g></g></g></svg>