<?xml version="1.0" encoding="utf-8"?><svg viewBox="0 0 100 100" xmlns="http://www.w3.org/2000/svg" xmlns:xlink="http://www.w3.org/1999/xlink" id="Ebene_1" xml:space="preserve" overflow="hidden"><style>
.MsftOfcThm_Text2_Stroke_v2 {
 stroke:#4A4A4A; 
}
</style>
<g><g><g><path d="M48.1054 72.4232C47.0009 73.5277 45.2099 73.5277 44.1054 72.4232 43.0009 71.3187 43.0009 69.5277 44.1054 68.4232L45.4482 67.0804C46.5527 65.9759 48.3437 65.9759 49.4482 67.0804 50.5527 68.1849 50.5527 69.9759 49.4482 71.0804L48.1054 72.4232Z" class="st0 MsftOfcThm_Text2_Stroke_v2" stroke="#4A4A4A" stroke-width="1.66667" stroke-linecap="round" stroke-linejoin="round" fill="none" /><path d="M42.1054 70.4232C41.0009 71.5277 39.2099 71.5277 38.1054 70.4232 37.0009 69.3187 37.0009 67.5277 38.1054 66.4232L41.4482 63.0804C42.5527 61.9759 44.3437 61.9759 45.4482 63.0804 46.5527 64.1849 46.5527 65.9759 45.4482 67.0804L42.1054 70.4232Z" class="st0 MsftOfcThm_Text2_Stroke_v2" stroke="#4A4A4A" stroke-width="1.66667" stroke-linecap="round" stroke-linejoin="round" fill="none" /><path d="M38.1054 66.4232C37.0009 67.5277 35.2099 67.5277 34.1054 66.4232 33.0009 65.3187 33.0009 63.5277 34.1054 62.4232L37.4482 59.0804C38.5527 57.9759 40.3437 57.9759 41.4482 59.0804 42.5527 60.1849 42.5527 61.9759 41.4482 63.0804L38.1054 66.4232Z" class="st0 MsftOfcThm_Text2_Stroke_v2" stroke="#4A4A4A" stroke-width="1.66667" stroke-linecap="round" stroke-linejoin="round" fill="none" /><path d="M35.1054 61.4232C34.0009 62.5277 32.2099 62.5277 31.1054 61.4232 30.0009 60.3187 30.0009 58.5277 31.1054 57.4232L33.4482 55.0804C34.5527 53.9759 36.3437 53.9759 37.4482 55.0804 38.5527 56.1849 38.5527 57.9759 37.4482 59.0804L35.1054 61.4232Z" class="st0 MsftOfcThm_Text2_Stroke_v2" stroke="#4A4A4A" stroke-width="1.66667" stroke-linecap="round" stroke-linejoin="round" fill="none" /><path d="M53.2763 65.2513 58.4472 70.4232C59.5517 71.5277 61.3427 71.5277 62.4472 70.4232 63.5517 69.3187 63.5517 67.5277 62.4472 66.4232" class="st0 MsftOfcThm_Text2_Stroke_v2" stroke="#4A4A4A" stroke-width="1.66667" stroke-linecap="round" stroke-linejoin="round" fill="none" /><path d="M57.2763 61.2513 62.4472 66.4232C63.5517 67.5277 65.3427 67.5277 66.4472 66.4232 67.5517 65.3187 67.5517 63.5277 66.4472 62.4232L65.4472 61.4232" class="st0 MsftOfcThm_Text2_Stroke_v2" stroke="#4A4A4A" stroke-width="1.66667" stroke-linecap="round" stroke-linejoin="round" fill="none" /><line x1="66.7763" y1="54.7513" x2="72.2763" y2="49.2513" class="st0 MsftOfcThm_Text2_Stroke_v2" stroke="#4A4A4A" stroke-width="1.66667" stroke-linecap="round" stroke-linejoin="round" fill="none" /><path d="M50.0927 70.0677 52.4472 72.4232C53.5517 73.5277 55.3427 73.5277 56.4472 72.4232 57.5517 71.3187 57.5517 69.5277 56.4472 68.4232" class="st0 MsftOfcThm_Text2_Stroke_v2" stroke="#4A4A4A" stroke-width="1.66667" stroke-linecap="round" stroke-linejoin="round" fill="none" /><path d="M72.2763 27.2513 61.2763 38.2513 74.2763 51.2513 79.2763 46.2513" class="st0 MsftOfcThm_Text2_Stroke_v2" stroke="#4A4A4A" stroke-width="1.66667" stroke-linecap="round" stroke-linejoin="round" fill="none" /><path d="M28.2763 27.2513 39.2763 38.2513 26.2763 51.2513 21.2763 46.2513" class="st0 MsftOfcThm_Text2_Stroke_v2" stroke="#4A4A4A" stroke-width="1.66667" stroke-linecap="round" stroke-linejoin="round" fill="none" /><line x1="28.2763" y1="49.2513" x2="33.8095" y2="54.7845" class="st0 MsftOfcThm_Text2_Stroke_v2" stroke="#4A4A4A" stroke-width="1.66667" stroke-linecap="round" stroke-linejoin="round" fill="none" /><line x1="38.2763" y1="39.2513" x2="48.2763" y2="39.2513" class="st0 MsftOfcThm_Text2_Stroke_v2" stroke="#4A4A4A" stroke-width="1.66667" stroke-linecap="round" stroke-linejoin="round" fill="none" /><path d="M62.2763 39.2513 48.2763 39.2513 40.7763 46.7513C39.3954 48.1322 39.3954 50.3704 40.7763 51.7513 42.1572 53.1322 44.3954 53.1322 45.7763 51.7513L49.1201 48.4085C52.2431 45.2835 57.3095 45.2845 60.4326 48.4085L69.4472 57.4232C70.5517 58.5277 70.5517 60.3187 69.4472 61.4232 68.3427 62.5277 66.5517 62.5277 65.4472 61.4232L61.2763 57.2513" class="st0 MsftOfcThm_Text2_Stroke_v2" stroke="#4A4A4A" stroke-width="1.66667" stroke-linecap="round" stroke-linejoin="round" fill="none" /><circle cx="26.2763" cy="44.2513" r="1" class="st0 MsftOfcThm_Text2_Stroke_v2" stroke="#4A4A4A" stroke-width="1.66667" stroke-linecap="round" stroke-linejoin="round" fill="none" /><circle cx="74.2763" cy="44.2513" r="1" class="st0 MsftOfcThm_Text2_Stroke_v2" stroke="#4A4A4A" stroke-width="1.66667" stroke-linecap="round" stroke-linejoin="round" fill="none" /></g><g></g><g></g><g></g><g></g><g></g><g></g></g></g></svg>