<?xml version="1.0" encoding="utf-8"?><svg viewBox="0 0 100 100" xmlns="http://www.w3.org/2000/svg" xmlns:xlink="http://www.w3.org/1999/xlink" id="Ebene_1" xml:space="preserve" overflow="hidden"><style>
.MsftOfcThm_Text2_Stroke_v2 {
 stroke:#4A4A4A; 
}
</style>
<g><g><g><line x1="77.4952" y1="36.9981" x2="23.4952" y2="36.9981" class="st0 MsftOfcThm_Text2_Stroke_v2" stroke="#4A4A4A" stroke-width="1.66667" fill="none" /><circle cx="73.4952" cy="32.9981" r="0.5" class="st0 MsftOfcThm_Text2_Stroke_v2" stroke="#4A4A4A" stroke-width="1.66667" fill="none" /><circle cx="69.4952" cy="32.9981" r="0.5" class="st0 MsftOfcThm_Text2_Stroke_v2" stroke="#4A4A4A" stroke-width="1.66667" fill="none" /><circle cx="65.4952" cy="32.9981" r="0.5" class="st0 MsftOfcThm_Text2_Stroke_v2" stroke="#4A4A4A" stroke-width="1.66667" fill="none" /><path d="M61.4952 66.9981 74.4952 66.9981C76.1521 66.9981 77.4952 65.655 77.4952 63.9981L77.4952 31.9981C77.4952 30.3412 76.1521 28.9981 74.4952 28.9981L26.4952 28.9981C24.8383 28.9981 23.4952 30.3412 23.4952 31.9981L23.4952 63.9981C23.4952 65.655 24.8383 66.9981 26.4952 66.9981L39.4952 66.9981" class="st0 MsftOfcThm_Text2_Stroke_v2" stroke="#4A4A4A" stroke-width="1.66667" fill="none" /><circle cx="50.4952" cy="61.9981" r="1" class="st0 MsftOfcThm_Text2_Stroke_v2" stroke="#4A4A4A" stroke-width="1.66667" fill="none" /><line x1="50.4952" y1="64.9981" x2="50.4952" y2="62.9981" class="st0 MsftOfcThm_Text2_Stroke_v2" stroke="#4A4A4A" stroke-width="1.66667" fill="none" /><path d="M61.4952 67.9981C61.4952 69.6553 60.1519 70.9981 58.4952 70.9981L42.4952 70.9981C40.8385 70.9981 39.4952 69.6553 39.4952 67.9981L39.4952 57.9981C39.4952 56.3409 40.8385 54.9981 42.4952 54.9981L58.4952 54.9981C60.1519 54.9981 61.4952 56.3409 61.4952 57.9981L61.4952 67.9981Z" class="st0 MsftOfcThm_Text2_Stroke_v2" stroke="#4A4A4A" stroke-width="1.66667" fill="none" /><path d="M43.4952 54.9981 43.4952 49.9981C43.4952 46.1319 46.629 42.9981 50.4952 42.9981 54.3614 42.9981 57.4952 46.1319 57.4952 49.9981L57.4952 54.9981" class="st0 MsftOfcThm_Text2_Stroke_v2" stroke="#4A4A4A" stroke-width="1.66667" fill="none" /></g><g></g><g></g><g></g><g></g><g></g><g></g><g></g><g></g><g></g><g></g><g></g></g></g></svg>