<?xml version="1.0" encoding="utf-8"?><svg viewBox="0 0 100 100" xmlns="http://www.w3.org/2000/svg" xmlns:xlink="http://www.w3.org/1999/xlink" id="Ebene_1" xml:space="preserve" overflow="hidden"><style>
.MsftOfcThm_Text2_Stroke_v2 {
 stroke:#4A4A4A; 
}
</style>
<g><g><g><path d="M28.9268 58.8342 36.9268 66.8342 36.9268 58.8342 63.9268 58.8342C65.5831 58.8342 66.9268 57.4914 66.9268 55.8342L66.9268 29.8342C66.9268 28.177 65.5831 26.8342 63.9268 26.8342L25.9268 26.8342C24.2706 26.8342 22.9268 28.177 22.9268 29.8342L22.9268 55.8342C22.9268 57.4914 24.2706 58.8342 25.9268 58.8342L28.9268 58.8342Z" class="st0 MsftOfcThm_Text2_Stroke_v2" stroke="#4A4A4A" stroke-width="1.66667" fill="none" /><path d="M46.9268 58.8342 46.9268 63.8342C46.9268 65.4914 48.2706 66.8342 49.9268 66.8342L64.9268 66.8342 64.9268 72.8342 70.9268 66.8342 73.9268 66.8342C75.5831 66.8342 76.9268 65.4914 76.9268 63.8342L76.9268 45.8342C76.9268 44.177 75.5831 42.8342 73.9268 42.8342L66.9268 42.8342" class="st0 MsftOfcThm_Text2_Stroke_v2" stroke="#4A4A4A" stroke-width="1.66667" fill="none" /><line x1="32.9268" y1="36.8342" x2="56.9268" y2="36.8342" class="st0 MsftOfcThm_Text2_Stroke_v2" stroke="#4A4A4A" stroke-width="1.66667" fill="none" /><line x1="32.9268" y1="48.8342" x2="48.9268" y2="48.8342" class="st0 MsftOfcThm_Text2_Stroke_v2" stroke="#4A4A4A" stroke-width="1.66667" fill="none" /><line x1="56.9268" y1="42.8342" x2="32.9268" y2="42.8342" class="st0 MsftOfcThm_Text2_Stroke_v2" stroke="#4A4A4A" stroke-width="1.66667" fill="none" /></g><g></g><g></g><g></g><g></g><g></g><g></g><g></g><g></g><g></g><g></g><g></g></g></g></svg>