<?xml version="1.0" encoding="utf-8"?><svg viewBox="0 0 100 100" xmlns="http://www.w3.org/2000/svg" xmlns:xlink="http://www.w3.org/1999/xlink" id="Ebene_1" xml:space="preserve" overflow="hidden"><style>
.MsftOfcThm_Text2_Stroke_v2 {
 stroke:#4A4A4A; 
}
</style>
<g><g><g><line x1="50.3254" y1="50.1289" x2="63.3254" y2="37.1289" class="st0 MsftOfcThm_Text2_Stroke_v2" stroke="#4A4A4A" stroke-width="1.66667" stroke-linejoin="round" fill="none" /><path d="M63.3254 31.1289 63.3254 37.1289 69.3254 37.1289 75.3254 31.1289 69.3254 31.1289 69.3254 25.1289Z" class="st0 MsftOfcThm_Text2_Stroke_v2" stroke="#4A4A4A" stroke-width="1.66667" stroke-linejoin="round" fill="none" /><path d="M60.2668 27.1885C57.2199 25.8662 53.8586 25.1289 50.3254 25.1289 36.5178 25.1289 25.3254 36.3223 25.3254 50.1289 25.3254 63.9355 36.5178 75.1289 50.3254 75.1289 64.133 75.1289 75.3254 63.9355 75.3254 50.1289 75.3254 46.5957 74.5881 43.2353 73.2658 40.1885" class="st1 MsftOfcThm_Text2_Stroke_v2" stroke="#4A4A4A" stroke-width="1.66667" stroke-linecap="round" stroke-linejoin="round" fill="none" /><circle cx="50.3254" cy="50.1289" r="1" class="st1 MsftOfcThm_Text2_Stroke_v2" stroke="#4A4A4A" stroke-width="1.66667" stroke-linecap="round" stroke-linejoin="round" fill="none" /><path d="M57.3254 34.6494C55.1887 33.6816 52.8234 33.1289 50.3254 33.1289 40.9358 33.1289 33.3254 40.7402 33.3254 50.1289 33.3254 59.5176 40.9358 67.1289 50.3254 67.1289 59.715 67.1289 67.3254 59.5176 67.3254 50.1289 67.3254 47.6309 66.7727 45.2656 65.8049 43.1289" class="st1 MsftOfcThm_Text2_Stroke_v2" stroke="#4A4A4A" stroke-width="1.66667" stroke-linecap="round" stroke-linejoin="round" fill="none" /><path d="M52.3254 41.3594C51.6809 41.2129 51.0139 41.1289 50.3254 41.1289 45.3567 41.1289 41.3254 45.1582 41.3254 50.1289 41.3254 55.0996 45.3567 59.1289 50.3254 59.1289 55.2942 59.1289 59.3254 55.0996 59.3254 50.1289 59.3254 49.4404 59.2414 48.7734 59.0949 48.1289" class="st1 MsftOfcThm_Text2_Stroke_v2" stroke="#4A4A4A" stroke-width="1.66667" stroke-linecap="round" stroke-linejoin="round" fill="none" /></g><g></g><g></g><g></g><g></g><g></g><g></g></g></g></svg>