<?xml version="1.0" encoding="utf-8"?><svg viewBox="0 0 100 100" xmlns="http://www.w3.org/2000/svg" xmlns:xlink="http://www.w3.org/1999/xlink" id="Ebene_1" xml:space="preserve" overflow="hidden"><style>
.MsftOfcThm_Text2_Stroke_v2 {
 stroke:#4A4A4A; 
}
</style>
<g><g><g><circle cx="50.4268" cy="53.9823" r="21" class="st0 MsftOfcThm_Text2_Stroke_v2" stroke="#4A4A4A" stroke-width="1.66667" fill="none" /><circle cx="50.4268" cy="53.9823" r="3" class="st0 MsftOfcThm_Text2_Stroke_v2" stroke="#4A4A4A" stroke-width="1.66667" fill="none" /><line x1="34.8705" y1="34.1833" x2="30.6278" y2="38.426" class="st0 MsftOfcThm_Text2_Stroke_v2" stroke="#4A4A4A" stroke-width="1.66667" fill="none" /><line x1="65.9831" y1="34.1833" x2="70.2258" y2="38.426" class="st0 MsftOfcThm_Text2_Stroke_v2" stroke="#4A4A4A" stroke-width="1.66667" fill="none" /><line x1="47.4268" y1="28.9823" x2="47.4268" y2="33.2209" class="st0 MsftOfcThm_Text2_Stroke_v2" stroke="#4A4A4A" stroke-width="1.66667" fill="none" /><path d="M53.4268 33.1823 53.4268 28.9823 56.4268 28.9823C56.9791 28.9823 57.4268 28.5346 57.4268 27.9823L57.4268 25.9823C57.4268 25.43 56.9791 24.9823 56.4268 24.9823L44.4268 24.9823C43.8745 24.9823 43.4268 25.43 43.4268 25.9823L43.4268 27.9823C43.4268 28.5346 43.8745 28.9823 44.4268 28.9823L49.4268 28.9823" class="st0 MsftOfcThm_Text2_Stroke_v2" stroke="#4A4A4A" stroke-width="1.66667" fill="none" /><line x1="50.4268" y1="36.9823" x2="50.4268" y2="38.9823" class="st0 MsftOfcThm_Text2_Stroke_v2" stroke="#4A4A4A" stroke-width="1.66667" fill="none" /><line x1="41.9268" y1="39.2599" x2="42.9268" y2="40.9919" class="st0 MsftOfcThm_Text2_Stroke_v2" stroke="#4A4A4A" stroke-width="1.66667" fill="none" /><line x1="50.4268" y1="68.9823" x2="50.4268" y2="70.9823" class="st0 MsftOfcThm_Text2_Stroke_v2" stroke="#4A4A4A" stroke-width="1.66667" fill="none" /><line x1="58.9268" y1="39.2599" x2="57.9268" y2="40.9919" class="st0 MsftOfcThm_Text2_Stroke_v2" stroke="#4A4A4A" stroke-width="1.66667" fill="none" /><line x1="42.9268" y1="66.9727" x2="41.9268" y2="68.7047" class="st0 MsftOfcThm_Text2_Stroke_v2" stroke="#4A4A4A" stroke-width="1.66667" fill="none" /><line x1="57.9268" y1="66.9727" x2="58.9268" y2="68.7047" class="st0 MsftOfcThm_Text2_Stroke_v2" stroke="#4A4A4A" stroke-width="1.66667" fill="none" /><line x1="33.4268" y1="53.9823" x2="35.4268" y2="53.9823" class="st0 MsftOfcThm_Text2_Stroke_v2" stroke="#4A4A4A" stroke-width="1.66667" fill="none" /><line x1="35.7044" y1="62.4823" x2="37.4364" y2="61.4823" class="st0 MsftOfcThm_Text2_Stroke_v2" stroke="#4A4A4A" stroke-width="1.66667" fill="none" /><line x1="65.4268" y1="53.9823" x2="67.4268" y2="53.9823" class="st0 MsftOfcThm_Text2_Stroke_v2" stroke="#4A4A4A" stroke-width="1.66667" fill="none" /><line x1="35.7044" y1="45.4823" x2="37.4364" y2="46.4823" class="st0 MsftOfcThm_Text2_Stroke_v2" stroke="#4A4A4A" stroke-width="1.66667" fill="none" /><line x1="63.4172" y1="61.4823" x2="65.1492" y2="62.4823" class="st0 MsftOfcThm_Text2_Stroke_v2" stroke="#4A4A4A" stroke-width="1.66667" fill="none" /><line x1="65.1492" y1="45.4823" x2="53.0268" y2="52.4885" class="st0 MsftOfcThm_Text2_Stroke_v2" stroke="#4A4A4A" stroke-width="1.66667" fill="none" /></g><g></g><g></g><g></g><g></g><g></g><g></g><g></g><g></g><g></g><g></g><g></g></g></g></svg>