<?xml version="1.0" encoding="utf-8"?><svg viewBox="0 0 100 100" xmlns="http://www.w3.org/2000/svg" xmlns:xlink="http://www.w3.org/1999/xlink" id="Ebene_1" xml:space="preserve" overflow="hidden"><style>
.MsftOfcThm_Text2_Stroke_v2 {
 stroke:#4A4A4A; 
}
</style>
<g><g><g><circle cx="49.9268" cy="43.0488" r="7" class="st0 MsftOfcThm_Text2_Stroke_v2" stroke="#4A4A4A" stroke-width="1.66667" fill="none" /><path d="M60.9268 62.0488C62.0313 62.0488 62.9268 61.1533 62.9268 60.0488L62.9268 57.5488C62.9268 55.582 61.6622 53.8252 59.7955 53.208L55.9268 52.0488 49.9268 58.0488 43.9268 52.0488 40.0581 53.208C38.1914 53.8252 36.9268 55.582 36.9268 57.5488L36.9268 60.0488C36.9268 61.1533 37.8223 62.0488 38.9268 62.0488L60.9268 62.0488Z" class="st0 MsftOfcThm_Text2_Stroke_v2" stroke="#4A4A4A" stroke-width="1.66667" fill="none" /><path d="M65.9268 64.0488 65.9268 70.0488 71.9268 70.0488" class="st0 MsftOfcThm_Text2_Stroke_v2" stroke="#4A4A4A" stroke-width="1.66667" fill="none" /><path d="M27.9268 32.0488 33.9268 32.0488 33.9268 38.0488" class="st0 MsftOfcThm_Text2_Stroke_v2" stroke="#4A4A4A" stroke-width="1.66667" fill="none" /><path d="M66.1653 70.0488C71.5252 65.4636 74.9268 58.6555 74.9268 51.0488 74.9268 37.2417 63.7339 26.0488 49.9268 26.0488 46.4445 26.0488 43.1294 26.7624 40.1174 28.0488" class="st0 MsftOfcThm_Text2_Stroke_v2" stroke="#4A4A4A" stroke-width="1.66667" fill="none" /><path d="M33.6883 32.0488C28.3284 36.634 24.9268 43.4421 24.9268 51.0488 24.9268 64.8559 36.1197 76.0488 49.9268 76.0488 53.4091 76.0488 56.7242 75.3352 59.7362 74.0488" class="st0 MsftOfcThm_Text2_Stroke_v2" stroke="#4A4A4A" stroke-width="1.66667" fill="none" /></g><g></g><g></g><g></g><g></g><g></g><g></g><g></g><g></g><g></g><g></g><g></g></g></g></svg>