<?xml version="1.0" encoding="utf-8"?><svg viewBox="0 0 100 100" xmlns="http://www.w3.org/2000/svg" xmlns:xlink="http://www.w3.org/1999/xlink" id="Ebene_1" xml:space="preserve" overflow="hidden"><style>
.MsftOfcThm_Text2_Stroke_v2 {
 stroke:#4A4A4A; 
}
</style>
<g><g><g><path d="M27.2763 45.2895 37.2763 45.2895 37.2763 73.2895 27.2763 73.2895" class="st0 MsftOfcThm_Text2_Stroke_v2" stroke="#4A4A4A" stroke-width="1.66667" stroke-linecap="round" stroke-linejoin="round" fill="none" /><circle cx="32.2763" cy="66.2895" r="1" class="st1 MsftOfcThm_Text2_Stroke_v2" stroke="#4A4A4A" stroke-width="1.66667" stroke-linejoin="round" fill="none" /><path d="M57.2763 75.2895C55.0673 75.2895 53.2763 73.4985 53.2763 71.2895 53.2763 69.0805 55.0673 67.2895 57.2763 67.2895L63.2763 67.2895C65.4853 67.2895 67.2763 69.0805 67.2763 71.2895 67.2763 73.4985 65.4853 75.2895 63.2763 75.2895L41.2763 75.2895C39.0673 75.2895 37.2763 73.4985 37.2763 71.2895" class="st1 MsftOfcThm_Text2_Stroke_v2" stroke="#4A4A4A" stroke-width="1.66667" stroke-linejoin="round" fill="none" /><path d="M58.2763 67.2895C56.0673 67.2895 54.2763 65.4985 54.2763 63.2895 54.2763 61.0805 56.0673 59.2895 58.2763 59.2895L67.2763 59.2895C69.4853 59.2895 71.2763 61.0805 71.2763 63.2895 71.2763 65.4985 69.4853 67.2895 67.2763 67.2895L63.2763 67.2895" class="st1 MsftOfcThm_Text2_Stroke_v2" stroke="#4A4A4A" stroke-width="1.66667" stroke-linejoin="round" fill="none" /><path d="M59.2763 59.2895C57.0673 59.2895 55.2763 57.4985 55.2763 55.2895 55.2763 53.0805 57.0673 51.2895 59.2763 51.2895L61.2763 51.2895" class="st1 MsftOfcThm_Text2_Stroke_v2" stroke="#4A4A4A" stroke-width="1.66667" stroke-linejoin="round" fill="none" /><path d="M69.2763 51.2895C71.4853 51.2895 73.2763 53.0805 73.2763 55.2895 73.2763 57.4985 71.4853 59.2895 69.2763 59.2895L67.2763 59.2895" class="st1 MsftOfcThm_Text2_Stroke_v2" stroke="#4A4A4A" stroke-width="1.66667" stroke-linejoin="round" fill="none" /><path d="M61.2763 43.2895C59.0673 43.2895 57.2763 45.0805 57.2763 47.2895 57.2763 49.4985 59.0673 51.2895 61.2763 51.2895L69.2763 51.2895C71.4853 51.2895 73.2763 49.4985 73.2763 47.2895 73.2763 45.0805 71.4853 43.2895 69.2763 43.2895L53.2763 43.2895 53.2763 31.2895C53.2763 27.976 50.5898 25.2895 47.2763 25.2895L45.2763 25.2895 45.2763 34.2895 37.2763 47.2895" class="st1 MsftOfcThm_Text2_Stroke_v2" stroke="#4A4A4A" stroke-width="1.66667" stroke-linejoin="round" fill="none" /></g><g></g><g></g><g></g><g></g><g></g><g></g></g></g></svg>