<?xml version="1.0" encoding="utf-8"?><svg viewBox="0 0 100 100" xmlns="http://www.w3.org/2000/svg" xmlns:xlink="http://www.w3.org/1999/xlink" id="Ebene_1" xml:space="preserve" overflow="hidden"><style>
.MsftOfcThm_Text2_Stroke_v2 {
 stroke:#4A4A4A; 
}
</style>
<g><g><g><path d="M54.4268 26.9823 55.4268 26.9823C64.8157 26.9823 72.4268 34.5934 72.4268 43.9823 72.4268 44.3601 72.3946 44.7297 72.3703 45.1013L78.837 51.5681C80.0969 52.828 79.2046 54.9823 77.4228 54.9823L73.4268 54.9823 73.4268 62.9823C73.4268 65.1914 71.636 66.9823 69.4268 66.9823L63.4268 66.9823 63.4268 72.9823 50.4268 72.9823 50.4268 62.393C50.4268 61.0065 49.05 60.0442 47.7466 60.5171 46.9281 60.814 46.1035 60.9823 45.4268 60.9823 43.2176 60.9823 41.4268 59.1914 41.4268 56.9823 41.4268 54.7731 43.2176 52.9823 45.4268 52.9823 46.1035 52.9823 46.9281 53.1506 47.7466 53.4475 49.05 53.9203 50.4268 52.9581 50.4268 51.5715L50.4268 46.393C50.4268 45.0065 51.8036 44.0442 53.107 44.5171 53.9255 44.814 54.7501 44.9823 55.4268 44.9823 57.636 44.9823 59.4268 43.1914 59.4268 40.9823 59.4268 38.7731 57.636 36.9823 55.4268 36.9823 54.7501 36.9823 53.9255 37.1506 53.107 37.4475 51.8036 37.9203 50.4268 36.9581 50.4268 35.5715L50.4268 26.9823 45.4268 26.9823C36.0379 26.9823 28.4268 34.5934 28.4268 43.9823 28.4268 44.3601 28.459 44.7297 28.4833 45.1013L22.0166 51.5681C20.7567 52.828 21.649 54.9823 23.4308 54.9823L27.4268 54.9823 27.4268 62.9823C27.4268 65.1914 29.2176 66.9823 31.4268 66.9823L37.4268 66.9823 37.4268 72.9823 46.4268 72.9823" class="st0 MsftOfcThm_Text2_Stroke_v2" stroke="#4A4A4A" stroke-width="1.66667" fill="none" /></g><g></g><g></g><g></g><g></g><g></g><g></g><g></g><g></g><g></g><g></g><g></g></g></g></svg>