<?xml version="1.0" encoding="utf-8"?><svg viewBox="0 0 100 100" xmlns="http://www.w3.org/2000/svg" xmlns:xlink="http://www.w3.org/1999/xlink" id="Ebene_1" xml:space="preserve" overflow="hidden"><style>
.MsftOfcThm_Text2_Stroke_v2 {
 stroke:#4A4A4A; 
}
</style>
<g><g><g><circle cx="60.9268" cy="71.9756" r="3" class="st0 MsftOfcThm_Text2_Stroke_v2" stroke="#4A4A4A" stroke-width="1.66667" fill="none" /><circle cx="30.9268" cy="64.9756" r="3" class="st0 MsftOfcThm_Text2_Stroke_v2" stroke="#4A4A4A" stroke-width="1.66667" fill="none" /><circle cx="68.9268" cy="64.9756" r="3" class="st0 MsftOfcThm_Text2_Stroke_v2" stroke="#4A4A4A" stroke-width="1.66667" fill="none" /><path d="M65.9268 64.9756 58.9268 64.9756 58.9268 48.9756" class="st0 MsftOfcThm_Text2_Stroke_v2" stroke="#4A4A4A" stroke-width="1.66667" fill="none" /><path d="M33.9268 64.9756 40.9268 64.9756 40.9268 48.9756" class="st0 MsftOfcThm_Text2_Stroke_v2" stroke="#4A4A4A" stroke-width="1.66667" fill="none" /><path d="M52.9268 48.9756 52.9268 71.9756 57.9268 71.9756" class="st0 MsftOfcThm_Text2_Stroke_v2" stroke="#4A4A4A" stroke-width="1.66667" fill="none" /><circle cx="38.9268" cy="71.9756" r="3" class="st0 MsftOfcThm_Text2_Stroke_v2" stroke="#4A4A4A" stroke-width="1.66667" fill="none" /><path d="M46.9268 48.9756 46.9268 71.9756 41.9268 71.9756" class="st0 MsftOfcThm_Text2_Stroke_v2" stroke="#4A4A4A" stroke-width="1.66667" fill="none" /><path d="M58.9268 56.9756 65.6685 56.9756C70.7803 56.9756 74.9268 52.7608 74.9268 47.5635 74.9268 43.6563 72.5826 40.3047 69.2447 38.8818 69.3189 38.336 69.3692 37.7793 69.3692 37.208 69.3692 30.4502 63.9834 24.9756 57.3326 24.9756 51.4205 24.9756 46.5142 29.3086 45.5005 35.0244 44.1363 34.0332 42.4727 33.4453 40.669 33.4453 36.0635 33.4453 32.3326 37.2373 32.3326 41.918 32.3326 42.6055 32.4234 43.2705 32.5752 43.9111 32.1973 43.8428 31.8081 43.7998 31.4102 43.7998 27.8296 43.7998 24.9268 46.7461 24.9268 50.3867 24.9268 54.0264 27.8296 56.9756 31.4102 56.9756L40.9268 56.9756" class="st0 MsftOfcThm_Text2_Stroke_v2" stroke="#4A4A4A" stroke-width="1.66667" fill="none" /></g><g></g><g></g><g></g><g></g><g></g><g></g><g></g><g></g><g></g><g></g><g></g></g></g></svg>