<?xml version="1.0" encoding="utf-8"?><svg viewBox="0 0 100 100" xmlns="http://www.w3.org/2000/svg" xmlns:xlink="http://www.w3.org/1999/xlink" id="Ebene_1" xml:space="preserve" overflow="hidden"><style>
.MsftOfcThm_Text2_Stroke_v2 {
 stroke:#4A4A4A; 
}
</style>
<g><g><g><path d="M56.9268 60.0488 66.9268 60.0488C72.4493 60.0488 76.9268 55.3079 76.9268 49.4606 76.9268 45.064 74.3951 41.294 70.7915 39.6933 70.8711 39.0771 70.9268 38.4525 70.9268 37.8135 70.9268 30.2104 65.1075 24.0488 57.9268 24.0488 51.5406 24.0488 46.2422 28.9262 45.1455 35.3526 43.6729 34.24 41.875 33.5782 39.9268 33.5782 34.9551 33.5782 30.9268 37.8435 30.9268 43.1076 30.9268 43.882 31.0235 44.6307 31.188 45.3514 30.7784 45.2728 30.358 45.2253 29.9268 45.2253 26.0606 45.2253 22.9268 48.5434 22.9268 52.637 22.9268 56.7307 26.0606 60.0488 29.9268 60.0488L42.9268 60.0488" class="st0 MsftOfcThm_Text2_Stroke_v2" stroke="#4A4A4A" stroke-width="1.66667" fill="none" /><path d="M56.9268 76.0488C56.9268 77.1533 56.0313 78.0488 54.9268 78.0488L44.9268 78.0488C43.8223 78.0488 42.9268 77.1533 42.9268 76.0488L42.9268 56.0488C42.9268 54.9443 43.8223 54.0488 44.9268 54.0488L54.9268 54.0488C56.0313 54.0488 56.9268 54.9443 56.9268 56.0488L56.9268 76.0488Z" class="st0 MsftOfcThm_Text2_Stroke_v2" stroke="#4A4A4A" stroke-width="1.66667" fill="none" /><line x1="48.9268" y1="75.0488" x2="50.9268" y2="75.0488" class="st0 MsftOfcThm_Text2_Stroke_v2" stroke="#4A4A4A" stroke-width="1.66667" fill="none" /><path d="M42.8557 46.9777C46.761 43.0725 53.0926 43.0725 56.9979 46.9777" class="st0 MsftOfcThm_Text2_Stroke_v2" stroke="#4A4A4A" stroke-width="1.66667" fill="none" /><path d="M47.0984 50.0488C48.6605 48.7155 51.1931 48.7155 52.7552 50.0488" class="st0 MsftOfcThm_Text2_Stroke_v2" stroke="#4A4A4A" stroke-width="1.66667" fill="none" /><path d="M38.6131 43.7351C44.8615 37.4867 54.9921 37.4867 61.2405 43.7351" class="st0 MsftOfcThm_Text2_Stroke_v2" stroke="#4A4A4A" stroke-width="1.66667" fill="none" /></g><g></g><g></g><g></g><g></g><g></g><g></g><g></g><g></g><g></g><g></g><g></g></g></g></svg>