<?xml version="1.0" encoding="utf-8"?><svg viewBox="0 0 100 100" xmlns="http://www.w3.org/2000/svg" xmlns:xlink="http://www.w3.org/1999/xlink" id="Ebene_1" xml:space="preserve" overflow="hidden"><style>
.MsftOfcThm_Text2_Stroke_v2 {
 stroke:#4A4A4A; 
}
</style>
<g><g><g><circle cx="49.9268" cy="49.9756" r="23" class="st0 MsftOfcThm_Text2_Stroke_v2" stroke="#4A4A4A" stroke-width="1.66667" fill="none" /><path d="M27.8868 43.3965C27.7452 44.8223 27.7065 47.3311 28.9268 49.9756 29.9163 52.1199 31.3496 53.5214 32.4468 54.5756 35.6966 57.698 37.2061 57.1529 37.9668 59.1756 38.6033 60.8682 37.8111 61.9535 38.8868 64.6956 39.1159 65.2796 39.3462 65.6983 39.8068 66.5356 39.8069 66.5357 42.8288 72.0293 45.6003 72.5635 45.6031 72.564 45.6059 72.5645 45.606 72.5645 46.3644 72.7261 44.9086 70.3266 45.9268 67.9756 46.8923 65.7463 48.5275 65.5709 49.9268 62.9756 50.4432 62.0178 51.512 60.0341 50.9268 57.9756 50.2179 55.4817 47.417 54.06 45.3268 53.6556 42.4661 53.1021 41.7348 54.6085 37.9668 54.5756 36.712 54.5646 31.8858 54.5224 30.9268 51.9756 30.1114 49.8101 32.3239 46.4497 34.2868 46.2956 35.4865 46.2014 36.1541 47.3394 36.9268 46.9756 37.8655 46.5336 37.0864 44.7574 37.9668 42.6156 39.0262 40.0382 41.0319 40.4753 41.9268 37.9756 42.6089 36.0701 41.6232 35.314 42.5668 33.4156 43.3717 31.7963 44.5523 31.4141 44.4068 30.6556 44.3053 30.1269 43.5669 29.4536 40.3457 29.0674" class="st0 MsftOfcThm_Text2_Stroke_v2" stroke="#4A4A4A" stroke-width="1.66667" fill="none" /><path d="M55.4395 27.6455C54.1983 28.6157 53.9396 29.4236 53.9268 29.9756 53.8964 31.292 55.1354 31.886 54.9268 32.9756 54.6916 34.2041 52.9472 34.1772 52.6868 35.2556 52.3025 36.8469 55.4471 39.6108 56.9268 38.9756 58.2908 38.3901 57.0859 35.388 58.9268 33.9756 60.5426 32.7359 63.8784 33.0966 64.9268 34.9756 65.389 35.8041 65.4559 37.0067 64.9268 37.9756 63.8791 39.894 61.4486 39.1606 58.2068 40.7756 57.4641 41.1456 53.1503 43.2947 52.6868 47.2156 52.4507 49.2127 53.2209 51.6066 54.9268 52.9756 57.3682 54.935 59.8943 53.3248 62.8068 54.5756 64.7469 55.4088 67.0558 57.5962 68.3819 63.7041" class="st0 MsftOfcThm_Text2_Stroke_v2" stroke="#4A4A4A" stroke-width="1.66667" fill="none" /></g><g></g><g></g><g></g><g></g><g></g><g></g><g></g><g></g><g></g><g></g><g></g></g></g></svg>