<?xml version="1.0" encoding="utf-8"?><svg viewBox="0 0 100 100" xmlns="http://www.w3.org/2000/svg" xmlns:xlink="http://www.w3.org/1999/xlink" id="Ebene_1" xml:space="preserve" overflow="hidden"><style>
.MsftOfcThm_Text2_Stroke_v2 {
 stroke:#4A4A4A; 
}
</style>
<g><g><g><path d="M67.2613 50.9821C66.7408 59.9001 59.3609 66.9821 50.3121 66.9821 45.6187 66.9821 41.3726 65.0749 38.2984 61.9958L42.3121 57.9821 25.3121 54.9821 28.3121 71.9821 32.6441 67.6491C37.1676 72.1745 43.4078 74.9821 50.3121 74.9821 63.7857 74.9821 74.7613 64.3258 75.2867 50.9821" class="st0 MsftOfcThm_Text2_Stroke_v2" stroke="#4A4A4A" stroke-width="1.66667" stroke-linecap="round" stroke-linejoin="round" fill="none" /><path d="M33.3375 48.9821C33.858 40.0641 41.2379 32.9821 50.2867 32.9821 54.9801 32.9821 59.2262 34.8893 62.3004 37.9684L58.2867 41.9821 75.3121 44.9821 72.2867 27.9821 67.9547 32.3151C63.4312 27.7897 57.191 24.9821 50.2867 24.9821 36.8131 24.9821 25.8375 35.6383 25.3121 48.9821" class="st0 MsftOfcThm_Text2_Stroke_v2" stroke="#4A4A4A" stroke-width="1.66667" stroke-linecap="round" stroke-linejoin="round" fill="none" /></g><g></g><g></g><g></g><g></g><g></g><g></g></g></g></svg>