<?xml version="1.0" encoding="utf-8"?><svg viewBox="0 0 100 100" xmlns="http://www.w3.org/2000/svg" xmlns:xlink="http://www.w3.org/1999/xlink" id="Ebene_1" xml:space="preserve" overflow="hidden"><style>
.MsftOfcThm_Text2_Stroke_v2 {
 stroke:#4A4A4A; 
}
</style>
<g><g><g><path d="M24.7572 43.1289 24.7572 30.1289C24.7572 28.4717 26.101 27.1289 27.7572 27.1289L75.7572 27.1289C77.4135 27.1289 78.7572 28.4717 78.7572 30.1289L78.7572 62.1289C78.7572 63.7861 77.4135 65.1289 75.7572 65.1289L36.7572 65.1289" class="st0 MsftOfcThm_Text2_Stroke_v2" stroke="#4A4A4A" stroke-width="1.66667" stroke-linejoin="round" fill="none" /><line x1="36.7572" y1="57.1289" x2="78.7572" y2="57.1289" class="st0 MsftOfcThm_Text2_Stroke_v2" stroke="#4A4A4A" stroke-width="1.66667" stroke-linejoin="round" fill="none" /><path d="M56.7572 65.1289 56.7572 69.1289 62.7572 73.1289 40.7572 73.1289 46.7572 69.1289 46.7572 65.1289" class="st0 MsftOfcThm_Text2_Stroke_v2" stroke="#4A4A4A" stroke-width="1.66667" stroke-linejoin="round" fill="none" /><line x1="49.7572" y1="61.1289" x2="53.7572" y2="61.1289" class="st1 MsftOfcThm_Text2_Stroke_v2" stroke="#4A4A4A" stroke-width="1.66667" stroke-linecap="round" stroke-linejoin="round" fill="none" /><path d="M36.7572 71.1289C36.7572 72.2334 35.8617 73.1289 34.7572 73.1289L22.7572 73.1289C21.6527 73.1289 20.7572 72.2334 20.7572 71.1289L20.7572 45.1289C20.7572 44.0244 21.6527 43.1289 22.7572 43.1289L34.7572 43.1289C35.8617 43.1289 36.7572 44.0244 36.7572 45.1289L36.7572 71.1289Z" class="st0 MsftOfcThm_Text2_Stroke_v2" stroke="#4A4A4A" stroke-width="1.66667" stroke-linejoin="round" fill="none" /><line x1="20.7572" y1="67.1289" x2="36.7572" y2="67.1289" class="st0 MsftOfcThm_Text2_Stroke_v2" stroke="#4A4A4A" stroke-width="1.66667" stroke-linejoin="round" fill="none" /><line x1="27.7572" y1="70.1289" x2="29.7572" y2="70.1289" class="st1 MsftOfcThm_Text2_Stroke_v2" stroke="#4A4A4A" stroke-width="1.66667" stroke-linecap="round" stroke-linejoin="round" fill="none" /></g><g></g><g></g><g></g><g></g><g></g><g></g></g></g></svg>