<?xml version="1.0" encoding="utf-8"?><svg viewBox="0 0 100 100" xmlns="http://www.w3.org/2000/svg" xmlns:xlink="http://www.w3.org/1999/xlink" id="Ebene_1" xml:space="preserve" overflow="hidden"><style>
.MsftOfcThm_Text2_Stroke_v2 {
 stroke:#4A4A4A; 
}
</style>
<g><g><g><path d="M60.3868 57.9821C63.6583 57.9821 66.3121 55.3483 66.3121 52.1012 66.3121 49.6589 64.8121 47.5641 62.6759 46.6745 62.7227 46.3298 62.7555 45.9841 62.7555 45.6305 62.7555 41.4059 59.3087 37.9821 55.0518 37.9821 51.2677 37.9821 48.128 40.6901 47.4796 44.2633 46.6065 43.6432 45.5416 43.277 44.3868 43.277 41.4395 43.277 39.0518 45.6432 39.0518 48.5719 39.0518 48.9997 39.11 49.4147 39.2071 49.818 38.9654 49.7721 38.7164 49.7477 38.4591 49.7477 36.1695 49.7477 34.3121 51.5915 34.3121 53.863 34.3121 56.1403 36.1695 57.9821 38.4591 57.9821L60.3868 57.9821Z" class="st0 MsftOfcThm_Text2_Stroke_v2" stroke="#4A4A4A" stroke-width="1.66667" stroke-linejoin="round" fill="none" /><path d="M66.3121 62.9821 66.3121 68.9821 72.3121 68.9821" class="st1 MsftOfcThm_Text2_Stroke_v2" stroke="#4A4A4A" stroke-width="1.66667" stroke-linecap="round" stroke-linejoin="round" fill="none" /><path d="M28.3121 30.9821 34.3121 30.9821 34.3121 36.9821" class="st1 MsftOfcThm_Text2_Stroke_v2" stroke="#4A4A4A" stroke-width="1.66667" stroke-linecap="round" stroke-linejoin="round" fill="none" /><path d="M66.5506 68.9821C71.9105 64.3969 75.3121 57.5888 75.3121 49.9821 75.3121 36.175 64.1192 24.9821 50.3121 24.9821 46.8298 24.9821 43.5147 25.6957 40.5027 26.9821" class="st1 MsftOfcThm_Text2_Stroke_v2" stroke="#4A4A4A" stroke-width="1.66667" stroke-linecap="round" stroke-linejoin="round" fill="none" /><path d="M34.0736 30.9821C28.7137 35.5673 25.3121 42.3754 25.3121 49.9821 25.3121 63.7892 36.505 74.9821 50.3121 74.9821 53.7944 74.9821 57.1095 74.2685 60.1215 72.9821" class="st1 MsftOfcThm_Text2_Stroke_v2" stroke="#4A4A4A" stroke-width="1.66667" stroke-linecap="round" stroke-linejoin="round" fill="none" /></g><g></g><g></g><g></g><g></g><g></g><g></g></g></g></svg>