<?xml version="1.0" encoding="utf-8"?><svg viewBox="0 0 100 100" xmlns="http://www.w3.org/2000/svg" xmlns:xlink="http://www.w3.org/1999/xlink" id="Ebene_1" xml:space="preserve" overflow="hidden"><style>
.MsftOfcThm_Text2_Stroke_v2 {
 stroke:#4A4A4A; 
}
</style>
<g><g><g><path d="M28.3628 50.6885 27.1703 41.6168C27.031 40.5568 26.1275 39.7644 25.0585 39.7644L25.0568 39.7644C23.8804 39.7644 22.9268 40.718 22.9268 41.8944L22.9268 57.2436C22.9268 58.2233 23.2863 59.1689 23.9372 59.9011L30.9268 67.7644" class="st0 MsftOfcThm_Text2_Stroke_v2" stroke="#4A4A4A" stroke-width="1.66667" fill="none" /><path d="M46.9268 73.7644 46.9268 65.9431C46.9268 61.698 43.9761 57.9766 39.8144 57.1394 39.2242 57.0207 38.588 56.9269 37.9027 56.8645 36.9633 56.779 36.0796 56.3816 35.4127 55.7147L31.0678 51.3698C30.143 50.4451 28.635 50.2677 27.6227 51.0956 26.4585 52.0477 26.3947 53.7678 27.4311 54.8043L34.3913 61.7644" class="st0 MsftOfcThm_Text2_Stroke_v2" stroke="#4A4A4A" stroke-width="1.66667" fill="none" /><path d="M71.4908 50.6885 72.6833 41.6168C72.8226 40.5568 73.7261 39.7644 74.7951 39.7644L74.7968 39.7644C75.9732 39.7644 76.9268 40.718 76.9268 41.8944L76.9268 57.2436C76.9268 58.2233 76.5673 59.1689 75.9164 59.9011L68.9268 67.7644" class="st0 MsftOfcThm_Text2_Stroke_v2" stroke="#4A4A4A" stroke-width="1.66667" fill="none" /><path d="M52.9268 73.7644 52.9268 65.9409C52.9268 61.7148 55.8512 57.9949 59.9918 57.149 60.5967 57.0255 61.2503 56.9282 61.956 56.8641 62.8921 56.7791 63.7727 56.3829 64.4374 55.7182 65.6532 54.5024 67.6233 52.5323 68.788 51.3676 69.7127 50.4429 71.2185 50.2677 72.2309 51.0956 73.3951 52.0477 73.4589 53.7678 72.4225 54.8043L65.4623 61.7644" class="st0 MsftOfcThm_Text2_Stroke_v2" stroke="#4A4A4A" stroke-width="1.66667" fill="none" /><path d="M68.7674 27.7644C69.926 34.5282 64.6691 44.9681 56.2077 48.5844 49.8723 51.292 42.6069 49.1957 39.9216 43.7742 37.2364 38.3528 40.1742 31.7165 46.4835 28.9516 52.7927 26.1868 60.8943 30.7851 68.7674 27.7644Z" class="st0 MsftOfcThm_Text2_Stroke_v2" stroke="#4A4A4A" stroke-width="1.66667" fill="none" /><path d="M34.9268 47.7644C37.439 41.3581 46.3933 36.4407 54.9268 36.7811" class="st0 MsftOfcThm_Text2_Stroke_v2" stroke="#4A4A4A" stroke-width="1.66667" fill="none" /></g><g></g><g></g><g></g><g></g><g></g><g></g><g></g><g></g><g></g><g></g><g></g></g></g></svg>