<?xml version="1.0" encoding="utf-8"?><svg viewBox="0 0 100 100" xmlns="http://www.w3.org/2000/svg" xmlns:xlink="http://www.w3.org/1999/xlink" id="Ebene_1" xml:space="preserve" overflow="hidden"><style>
.MsftOfcThm_Text2_Stroke_v2 {
 stroke:#4A4A4A; 
}
</style>
<g><g><g><circle cx="50.6095" cy="44.0823" r="1" class="st0 MsftOfcThm_Text2_Stroke_v2" stroke="#4A4A4A" stroke-width="1.66667" fill="none" /><line x1="50.6095" y1="44.0823" x2="67.6095" y2="44.0823" class="st0 MsftOfcThm_Text2_Stroke_v2" stroke="#4A4A4A" stroke-width="1.66667" fill="none" /><circle cx="50.6095" cy="44.0823" r="13" class="st0 MsftOfcThm_Text2_Stroke_v2" stroke="#4A4A4A" stroke-width="1.66667" fill="none" /><circle cx="50.6095" cy="44.0823" r="7" class="st0 MsftOfcThm_Text2_Stroke_v2" stroke="#4A4A4A" stroke-width="1.66667" fill="none" /><path d="M77.6095 48.0823 70.6095 48.0823 67.6095 44.0823 70.6095 40.0823 77.6095 40.0823 75.6095 44.0823Z" class="st0 MsftOfcThm_Text2_Stroke_v2" stroke="#4A4A4A" stroke-width="1.66667" fill="none" /><path d="M69.4362 41.6467C68.2382 32.3059 60.276 25.0823 50.6095 25.0823 40.1158 25.0823 31.6095 33.5882 31.6095 44.0823 31.6095 44.0891 31.6105 44.095 31.6105 44.1018L24.2159 51.5471C22.9205 52.8509 23.838 55.0823 25.6705 55.0823L29.6095 55.0823 29.6095 65.0823C29.6095 67.2913 31.4005 69.0823 33.6095 69.0823L41.6095 69.0823 41.6095 75.0823" class="st0 MsftOfcThm_Text2_Stroke_v2" stroke="#4A4A4A" stroke-width="1.66667" fill="none" /><path d="M63.6095 75.0823 63.6095 57.9134C66.7363 54.9729 68.8594 50.9901 69.4363 46.5182" class="st0 MsftOfcThm_Text2_Stroke_v2" stroke="#4A4A4A" stroke-width="1.66667" fill="none" /></g><g></g><g></g><g></g><g></g><g></g><g></g><g></g><g></g><g></g><g></g><g></g></g></g></svg>