<svg viewBox="0 0 489.9 153.2" xmlns="http://www.w3.org/2000/svg" xmlns:xlink="http://www.w3.org/1999/xlink" id="_Ebene_" overflow="hidden"><defs/><path d="M0 92.5C0 78.4 11.4 67 25.5 67 39.6 67 51 78.4 51 92.5 51 106.6 39.6 118 25.5 118 11.4 118 0 106.6 0 92.5L0 92.5Z" fill="#A01441"/><path d="M67.5 0 67.5 117.2 88.9 117.2 88.9 17.8 137.9 17.8 137.9 117.2 159.4 117.2 159.4 17.8 192 17.8C203 17.8 210.8 24.4 210.8 38.7L210.8 117.2 232.2 117.2 232.2 32.8C232.2 16.8 224 0 202.8 0L67.5 0Z" fill="#6F6F6F"/><path d="M275 0C251.9 0 244.9 15.4 244.9 32.5 244.9 50.9 252.5 66.3 273.5 66.3L324.4 66.3C340 66.3 340 78.3 340 83.8 340 88.9 340 99.4 324.8 99.4L246.9 99.4 246.9 117.3 333.8 117.3C355.5 117.3 361.7 104.6 361.7 84 361.7 59.5 353.7 48.6 335.2 48.6L280.2 48.6C266.3 48.6 266.3 39.2 266.3 33 266.3 28.1 267.7 17.9 282.5 17.9L357.6 17.9 357.6 0.1 275 0 275 0Z" fill="#6F6F6F"/><path d="M417.2 0C398.1 0 391 3 385.8 7.2 380.1 11.8 374.9 17.5 374.8 37.2L374.8 79.5C374.8 100.3 380.6 106.2 386.5 111.1 390.5 113.9 397.1 117.2 417.3 117.2L468.6 117.2 468.6 121.7C468.6 130.6 466.9 134.4 456.7 134.4L389.8 134.4 389.8 153.2 463.6 153.2C483.5 153.2 489.9 144.3 489.9 127.6L489.9 0 417.2 0ZM468.6 99.4 423.7 99.4C410.4 99.5 397 100.4 396.6 83.2 396.6 82.5 396.5 76.2 396.6 57.8 396.7 42.2 396.5 38.5 396.6 36.9 397.3 22.5 402.6 17.4 424.6 17.9L468.6 17.9 468.6 99.4 468.6 99.4Z" fill="#6F6F6F" fill-rule="evenodd"/></svg>